<?xml version="1.0" encoding="utf-8"?>
<svg version="1.1" id="图层_1" xmlns="http://www.w3.org/2000/svg" xmlns:xlink="http://www.w3.org/1999/xlink" x="0px" y="0px"
	 viewBox="0 0 880 880" style="enable-background:new 0 0 880 880;" xml:space="preserve">
<style type="text/css">
	.st0{fill:url(#SVGID_1_);}
</style>
<defs>
<linearGradient id="SVGID_1_" gradientUnits="userSpaceOnUse" x1="65.9236" y1="-6.0211" x2="640.3165" y2="678.5136">
	<stop  offset="0" style="stop-color:#62C3D1"/>
	<stop  offset="1" style="stop-color:#146BAB"/>
</linearGradient>
</defs>
<g>
	<path class="st0" d="M0,445c1.7-0.1,3.3-0.3,5-0.3c52.8,0,105.7,0,158.5,0c1.8,0,3.6,0,5.4,0c1.1,11.3,1.9,22.1,3.3,32.7
		c6.2,47.1,23.8,89.6,52.7,127.1c43,55.8,99.3,90.4,168.6,102.9c54.3,9.8,107,2.9,157.6-19.3c2.6-1.1,6.2-1.3,8.9-0.4
		c61.7,19.9,123.3,40.1,184.9,60.2c1.5,0.5,3.1,1,5.5,1.8c-3-8-5.7-15.3-8.3-22.6c-19.5-52.9-39-105.8-58.6-158.6
		c-1.2-3.2-1.1-5.8,0.4-8.9c16-32.7,24.9-67.1,27.1-103.5c8-131.8-81-249.6-208.1-279.2c-18-4.2-36.8-5.1-55.3-7.5
		c-1.1-0.1-2.3-0.2-3.6-0.4c-0.1-1.5-0.3-2.8-0.3-4.1c0-54,0-108,0-162c0-1,0.2-2,0.3-3c7.3,0,14.7,0,22,0
		c11.1,1.2,22.1,2.3,33.2,3.7c40.8,5.2,80.1,16.1,117.6,33c108.6,49,185.9,128.5,231.6,238.5c15.1,36.4,24.7,74.4,28.9,113.6
		c0.9,8.1,1.8,16.1,2.6,24.2c0,17.7,0,35.3,0,53c-1.2,11.2-2.3,22.4-3.7,33.6c-5.5,42.7-17.1,83.7-35.3,122.6
		C793.6,724,718.5,798.1,615.9,843.8c-39.6,17.6-81.1,28.7-124.2,33.5c-8.2,0.9-16.5,1.8-24.7,2.7c-17.7,0-35.3,0-53,0
		c-1.1-0.2-2.3-0.6-3.4-0.7c-25.6-1.4-51-5.2-75.8-11.6c-126.6-33-221.4-107-284.1-221.8C24.4,597.7,8.8,545.8,2.7,491.2
		C1.7,482.8,0.9,474.4,0,466C0,459,0,452,0,445z M128.1,52.1c17.2,0,34.4,0,51.9,0c0-17.7,0-34.9,0-52.1c-17.3,0-34.7,0-52,0
		c0,17.3-0.1,34.6-0.1,51.9C127.9,51.9,128.1,52.1,128.1,52.1z M257.1,131.1c0.8,0.1,1.7,0.2,2.5,0.2c41,0,81.9,0,122.9,0
		c1.1,0,2.2-0.2,3.4-0.3c0-43.2,0-86,0-128.8c-43.2,0-86.1,0-129.2,0c0,14.4,0,28.4,0,42.3c0.1,28.8,0.1,57.6,0.2,86.4L257.1,131.1z
		 M256.9,130.9c-20.6-0.1-41.3-0.2-61.9-0.2c-22.3,0-44.6,0.1-66.9,0.2c0,0-0.2,0.2-0.2,0.2c-0.1,21.3-0.2,42.6-0.2,63.9
		c0,21.6,0.1,43.2,0.2,64.9c0,0,0.2,0.2,0.2,0.2c0.7,0.1,1.3,0.2,2,0.2c41.1,0,82.2,0,123.3,0c1.1,0,2.2-0.2,3.9-0.3
		c0-7.6,0-14.8,0-22.1c-0.1-35.6-0.1-71.2-0.2-106.8C257.1,131.1,256.9,130.9,256.9,130.9z M48.9,52.1c0,26.2,0,52.4,0,79
		c26.6,0,52.8,0,79,0c0,0,0.2-0.2,0.2-0.2c0-26.3,0-52.5,0-78.8c0,0-0.2-0.2-0.2-0.2c-26.3,0-52.5,0-78.8,0L48.9,52.1z M48.9,260.1
		c0,26.2,0,52.5,0,78.8c26.7,0,52.9,0,79.2,0c0-26.5,0-52.7,0-78.8c0,0-0.2-0.2-0.2-0.2c-26.3,0-52.5,0-78.8,0L48.9,260.1z
		 M49.1,51.9c0-14.9,0-29.8,0-44.8c-15.3,0-30.2,0-45,0c0,15.2,0,30.1,0,45c15.2,0,30,0,44.8,0C48.9,52.1,49.1,51.9,49.1,51.9z
		 M49.1,259.9c0-14.9,0-29.8,0-44.8c-15.3,0-30.2,0-45,0c0,15.2,0,30.1,0,45c15.2,0,30,0,44.8,0C48.9,260.1,49.1,259.9,49.1,259.9z"
		/>
</g>
</svg>
